<?xml version="1.0" encoding="UTF-8" standalone="no"?>
<!DOCTYPE svg PUBLIC "-//W3C//DTD SVG 1.1//EN"
 "http://www.w3.org/Graphics/SVG/1.1/DTD/svg11.dtd">
<!-- Generated by graphviz version 2.36.0 (20140111.2315)
 -->
<!-- Title: controllers_diagram Pages: 1 -->
<svg width="534pt" height="492pt"
 viewBox="0.00 0.00 534.00 492.00" xmlns="http://www.w3.org/2000/svg" xmlns:xlink="http://www.w3.org/1999/xlink">
<g id="graph0" class="graph" transform="scale(1 1) rotate(0) translate(4 488)">
<title>controllers_diagram</title>
<polygon fill="white" stroke="none" points="-4,4 -4,-488 530,-488 530,4 -4,4"/>
<!-- _diagram_info -->
<g id="node1" class="node"><title>_diagram_info</title>
<text text-anchor="start" x="68" y="-228.6" font-family="Times,serif" font-size="13.00">Controllers diagram</text>
<text text-anchor="start" x="68" y="-214.6" font-family="Times,serif" font-size="13.00">Date: Feb 04 2015 &#45; 16:23</text>
<text text-anchor="start" x="68" y="-200.6" font-family="Times,serif" font-size="13.00">Migration version: 20150112125022</text>
<text text-anchor="start" x="68" y="-186.6" font-family="Times,serif" font-size="13.00">Generated by RailRoady 1.3.0</text>
<text text-anchor="start" x="68" y="-172.6" font-family="Times,serif" font-size="13.00">http://railroady.prestonlee.com</text>
</g>
<!-- ProductsController -->
<g id="node2" class="node"><title>ProductsController</title>
<path fill="none" stroke="black" d="M252,-270.5C252,-270.5 347,-270.5 347,-270.5 353,-270.5 359,-276.5 359,-282.5 359,-282.5 359,-441.5 359,-441.5 359,-447.5 353,-453.5 347,-453.5 347,-453.5 252,-453.5 252,-453.5 246,-453.5 240,-447.5 240,-441.5 240,-441.5 240,-282.5 240,-282.5 240,-276.5 246,-270.5 252,-270.5"/>
<text text-anchor="middle" x="299.5" y="-438.3" font-family="Times,serif" font-size="14.00">ProductsController</text>
<polyline fill="none" stroke="black" points="240,-430.5 359,-430.5 "/>
<text text-anchor="start" x="248" y="-415.3" font-family="Times,serif" font-size="14.00">create</text>
<text text-anchor="start" x="248" y="-400.3" font-family="Times,serif" font-size="14.00">destroy</text>
<text text-anchor="start" x="248" y="-385.3" font-family="Times,serif" font-size="14.00">edit</text>
<text text-anchor="start" x="248" y="-370.3" font-family="Times,serif" font-size="14.00">index</text>
<text text-anchor="start" x="248" y="-355.3" font-family="Times,serif" font-size="14.00">new</text>
<text text-anchor="start" x="248" y="-340.3" font-family="Times,serif" font-size="14.00">update</text>
<polyline fill="none" stroke="black" points="240,-332.5 359,-332.5 "/>
<polyline fill="none" stroke="black" points="240,-308.5 359,-308.5 "/>
<text text-anchor="start" x="248" y="-293.3" font-family="Times,serif" font-size="14.00">_layout</text>
<text text-anchor="start" x="248" y="-278.3" font-family="Times,serif" font-size="14.00">product_params</text>
</g>
<!-- ModsController -->
<g id="node3" class="node"><title>ModsController</title>
<path fill="none" stroke="black" d="M312,-75.5C312,-75.5 392,-75.5 392,-75.5 398,-75.5 404,-81.5 404,-87.5 404,-87.5 404,-231.5 404,-231.5 404,-237.5 398,-243.5 392,-243.5 392,-243.5 312,-243.5 312,-243.5 306,-243.5 300,-237.5 300,-231.5 300,-231.5 300,-87.5 300,-87.5 300,-81.5 306,-75.5 312,-75.5"/>
<text text-anchor="middle" x="352" y="-228.3" font-family="Times,serif" font-size="14.00">ModsController</text>
<polyline fill="none" stroke="black" points="300,-220.5 404,-220.5 "/>
<text text-anchor="start" x="308" y="-205.3" font-family="Times,serif" font-size="14.00">create</text>
<text text-anchor="start" x="308" y="-190.3" font-family="Times,serif" font-size="14.00">edit</text>
<text text-anchor="start" x="308" y="-175.3" font-family="Times,serif" font-size="14.00">index</text>
<text text-anchor="start" x="308" y="-160.3" font-family="Times,serif" font-size="14.00">new</text>
<text text-anchor="start" x="308" y="-145.3" font-family="Times,serif" font-size="14.00">update</text>
<polyline fill="none" stroke="black" points="300,-137.5 404,-137.5 "/>
<polyline fill="none" stroke="black" points="300,-113.5 404,-113.5 "/>
<text text-anchor="start" x="308" y="-98.3" font-family="Times,serif" font-size="14.00">_layout</text>
<text text-anchor="start" x="308" y="-83.3" font-family="Times,serif" font-size="14.00">mod_params</text>
</g>
<!-- ComponentsController -->
<g id="node4" class="node"><title>ComponentsController</title>
<path fill="none" stroke="black" d="M12,-30.5C12,-30.5 129,-30.5 129,-30.5 135,-30.5 141,-36.5 141,-42.5 141,-42.5 141,-126.5 141,-126.5 141,-132.5 135,-138.5 129,-138.5 129,-138.5 12,-138.5 12,-138.5 6,-138.5 0,-132.5 0,-126.5 0,-126.5 0,-42.5 0,-42.5 0,-36.5 6,-30.5 12,-30.5"/>
<text text-anchor="middle" x="70.5" y="-123.3" font-family="Times,serif" font-size="14.00">ComponentsController</text>
<polyline fill="none" stroke="black" points="0,-115.5 141,-115.5 "/>
<text text-anchor="start" x="8" y="-100.3" font-family="Times,serif" font-size="14.00">import</text>
<text text-anchor="start" x="8" y="-85.3" font-family="Times,serif" font-size="14.00">index</text>
<polyline fill="none" stroke="black" points="0,-77.5 141,-77.5 "/>
<polyline fill="none" stroke="black" points="0,-53.5 141,-53.5 "/>
<text text-anchor="start" x="8" y="-38.3" font-family="Times,serif" font-size="14.00">_layout</text>
</g>
<!-- ItemsController -->
<g id="node5" class="node"><title>ItemsController</title>
<path fill="none" stroke="black" d="M177,-0.5C177,-0.5 256,-0.5 256,-0.5 262,-0.5 268,-6.5 268,-12.5 268,-12.5 268,-126.5 268,-126.5 268,-132.5 262,-138.5 256,-138.5 256,-138.5 177,-138.5 177,-138.5 171,-138.5 165,-132.5 165,-126.5 165,-126.5 165,-12.5 165,-12.5 165,-6.5 171,-0.5 177,-0.5"/>
<text text-anchor="middle" x="216.5" y="-123.3" font-family="Times,serif" font-size="14.00">ItemsController</text>
<polyline fill="none" stroke="black" points="165,-115.5 268,-115.5 "/>
<text text-anchor="start" x="173" y="-100.3" font-family="Times,serif" font-size="14.00">create</text>
<text text-anchor="start" x="173" y="-85.3" font-family="Times,serif" font-size="14.00">index</text>
<text text-anchor="start" x="173" y="-70.3" font-family="Times,serif" font-size="14.00">item_params</text>
<text text-anchor="start" x="173" y="-55.3" font-family="Times,serif" font-size="14.00">new</text>
<polyline fill="none" stroke="black" points="165,-47.5 268,-47.5 "/>
<polyline fill="none" stroke="black" points="165,-23.5 268,-23.5 "/>
<text text-anchor="start" x="173" y="-8.3" font-family="Times,serif" font-size="14.00">_layout</text>
</g>
<!-- StaticPagesController -->
<g id="node6" class="node"><title>StaticPagesController</title>
<path fill="none" stroke="black" d="M402,-390.5C402,-390.5 512,-390.5 512,-390.5 518,-390.5 524,-396.5 524,-402.5 524,-402.5 524,-471.5 524,-471.5 524,-477.5 518,-483.5 512,-483.5 512,-483.5 402,-483.5 402,-483.5 396,-483.5 390,-477.5 390,-471.5 390,-471.5 390,-402.5 390,-402.5 390,-396.5 396,-390.5 402,-390.5"/>
<text text-anchor="middle" x="457" y="-468.3" font-family="Times,serif" font-size="14.00">StaticPagesController</text>
<polyline fill="none" stroke="black" points="390,-460.5 524,-460.5 "/>
<text text-anchor="start" x="398" y="-445.3" font-family="Times,serif" font-size="14.00">home</text>
<polyline fill="none" stroke="black" points="390,-437.5 524,-437.5 "/>
<polyline fill="none" stroke="black" points="390,-413.5 524,-413.5 "/>
<text text-anchor="start" x="398" y="-398.3" font-family="Times,serif" font-size="14.00">_layout</text>
</g>
<!-- ApplicationController -->
<g id="node7" class="node"><title>ApplicationController</title>
<path fill="none" stroke="black" d="M402,-270.5C402,-270.5 514,-270.5 514,-270.5 520,-270.5 526,-276.5 526,-282.5 526,-282.5 526,-352.5 526,-352.5 526,-358.5 520,-364.5 514,-364.5 514,-364.5 402,-364.5 402,-364.5 396,-364.5 390,-358.5 390,-352.5 390,-352.5 390,-282.5 390,-282.5 390,-276.5 396,-270.5 402,-270.5"/>
<text text-anchor="middle" x="458" y="-349.3" font-family="Times,serif" font-size="14.00">ApplicationController</text>
<polyline fill="none" stroke="black" points="390,-341.5 526,-341.5 "/>
<polyline fill="none" stroke="black" points="390,-317.5 526,-317.5 "/>
<polyline fill="none" stroke="black" points="390,-293.5 526,-293.5 "/>
<text text-anchor="start" x="398" y="-278.3" font-family="Times,serif" font-size="14.00">_layout</text>
</g>
<!-- SpinsController -->
<g id="node8" class="node"><title>SpinsController</title>
<path fill="none" stroke="black" d="M117,-285.5C117,-285.5 195,-285.5 195,-285.5 201,-285.5 207,-291.5 207,-297.5 207,-297.5 207,-456.5 207,-456.5 207,-462.5 201,-468.5 195,-468.5 195,-468.5 117,-468.5 117,-468.5 111,-468.5 105,-462.5 105,-456.5 105,-456.5 105,-297.5 105,-297.5 105,-291.5 111,-285.5 117,-285.5"/>
<text text-anchor="middle" x="156" y="-453.3" font-family="Times,serif" font-size="14.00">SpinsController</text>
<polyline fill="none" stroke="black" points="105,-445.5 207,-445.5 "/>
<text text-anchor="start" x="113" y="-430.3" font-family="Times,serif" font-size="14.00">create</text>
<text text-anchor="start" x="113" y="-415.3" font-family="Times,serif" font-size="14.00">destroy</text>
<text text-anchor="start" x="113" y="-400.3" font-family="Times,serif" font-size="14.00">edit</text>
<text text-anchor="start" x="113" y="-385.3" font-family="Times,serif" font-size="14.00">index</text>
<text text-anchor="start" x="113" y="-370.3" font-family="Times,serif" font-size="14.00">new</text>
<text text-anchor="start" x="113" y="-355.3" font-family="Times,serif" font-size="14.00">update</text>
<polyline fill="none" stroke="black" points="105,-347.5 207,-347.5 "/>
<polyline fill="none" stroke="black" points="105,-323.5 207,-323.5 "/>
<text text-anchor="start" x="113" y="-308.3" font-family="Times,serif" font-size="14.00">_layout</text>
<text text-anchor="start" x="113" y="-293.3" font-family="Times,serif" font-size="14.00">spin_params</text>
</g>
</g>
</svg>
