<?xml version="1.0" encoding="UTF-8" standalone="no"?>
<!DOCTYPE svg PUBLIC "-//W3C//DTD SVG 1.1//EN"
 "http://www.w3.org/Graphics/SVG/1.1/DTD/svg11.dtd">
<!-- Generated by graphviz version 2.36.0 (20140111.2315)
 -->
<!-- Title: models_diagram Pages: 1 -->
<svg width="713pt" height="1018pt"
 viewBox="0.00 0.00 713.00 1018.00" xmlns="http://www.w3.org/2000/svg" xmlns:xlink="http://www.w3.org/1999/xlink">
<g id="graph0" class="graph" transform="scale(1 1) rotate(0) translate(4 1014)">
<title>models_diagram</title>
<polygon fill="white" stroke="none" points="-4,4 -4,-1014 709,-1014 709,4 -4,4"/>
<!-- _diagram_info -->
<g id="node1" class="node"><title>_diagram_info</title>
<text text-anchor="start" x="7" y="-898.6" font-family="Times,serif" font-size="13.00">Models diagram</text>
<text text-anchor="start" x="7" y="-884.6" font-family="Times,serif" font-size="13.00">Date: Feb 04 2015 &#45; 16:23</text>
<text text-anchor="start" x="7" y="-870.6" font-family="Times,serif" font-size="13.00">Migration version: 20150112125022</text>
<text text-anchor="start" x="7" y="-856.6" font-family="Times,serif" font-size="13.00">Generated by RailRoady 1.3.0</text>
<text text-anchor="start" x="7" y="-842.6" font-family="Times,serif" font-size="13.00">http://railroady.prestonlee.com</text>
</g>
<!-- Spin -->
<g id="node2" class="node"><title>Spin</title>
<path fill="none" stroke="black" d="M253.5,-565C253.5,-565 360.5,-565 360.5,-565 366.5,-565 372.5,-571 372.5,-577 372.5,-577 372.5,-689 372.5,-689 372.5,-695 366.5,-701 360.5,-701 360.5,-701 253.5,-701 253.5,-701 247.5,-701 241.5,-695 241.5,-689 241.5,-689 241.5,-577 241.5,-577 241.5,-571 247.5,-565 253.5,-565"/>
<text text-anchor="middle" x="307" y="-685.8" font-family="Times,serif" font-size="14.00">Spin</text>
<polyline fill="none" stroke="black" points="241.5,-678 372.5,-678 "/>
<text text-anchor="start" x="249.5" y="-662.8" font-family="Times,serif" font-size="14.00">id :integer</text>
<text text-anchor="start" x="249.5" y="-647.8" font-family="Times,serif" font-size="14.00">product_id :integer</text>
<text text-anchor="start" x="249.5" y="-632.8" font-family="Times,serif" font-size="14.00">item_count :integer</text>
<text text-anchor="start" x="249.5" y="-617.8" font-family="Times,serif" font-size="14.00">description :text</text>
<text text-anchor="start" x="249.5" y="-602.8" font-family="Times,serif" font-size="14.00">name :string</text>
<text text-anchor="start" x="249.5" y="-587.8" font-family="Times,serif" font-size="14.00">created_at :datetime</text>
<text text-anchor="start" x="249.5" y="-572.8" font-family="Times,serif" font-size="14.00">updated_at :datetime</text>
</g>
<!-- Item -->
<g id="node7" class="node"><title>Item</title>
<path fill="none" stroke="black" d="M253.5,-376.5C253.5,-376.5 360.5,-376.5 360.5,-376.5 366.5,-376.5 372.5,-382.5 372.5,-388.5 372.5,-388.5 372.5,-515.5 372.5,-515.5 372.5,-521.5 366.5,-527.5 360.5,-527.5 360.5,-527.5 253.5,-527.5 253.5,-527.5 247.5,-527.5 241.5,-521.5 241.5,-515.5 241.5,-515.5 241.5,-388.5 241.5,-388.5 241.5,-382.5 247.5,-376.5 253.5,-376.5"/>
<text text-anchor="middle" x="307" y="-512.3" font-family="Times,serif" font-size="14.00">Item</text>
<polyline fill="none" stroke="black" points="241.5,-504.5 372.5,-504.5 "/>
<text text-anchor="start" x="249.5" y="-489.3" font-family="Times,serif" font-size="14.00">id :integer</text>
<text text-anchor="start" x="249.5" y="-474.3" font-family="Times,serif" font-size="14.00">spin_id :integer</text>
<text text-anchor="start" x="249.5" y="-459.3" font-family="Times,serif" font-size="14.00">name :string</text>
<text text-anchor="start" x="249.5" y="-444.3" font-family="Times,serif" font-size="14.00">image_url :string</text>
<text text-anchor="start" x="249.5" y="-429.3" font-family="Times,serif" font-size="14.00">user_id :integer</text>
<text text-anchor="start" x="249.5" y="-414.3" font-family="Times,serif" font-size="14.00">barcodeimage :string</text>
<text text-anchor="start" x="249.5" y="-399.3" font-family="Times,serif" font-size="14.00">created_at :datetime</text>
<text text-anchor="start" x="249.5" y="-384.3" font-family="Times,serif" font-size="14.00">updated_at :datetime</text>
</g>
<!-- Spin&#45;&gt;Item -->
<g id="edge1" class="edge"><title>Spin&#45;&gt;Item</title>
<path fill="none" stroke="#04bfb6" d="M307,-556.822C307,-550.66 307,-544.405 307,-538.179"/>
<ellipse fill="none" stroke="#04bfb6" cx="307" cy="-560.838" rx="4" ry="4"/>
<polygon fill="#04bfb6" stroke="#04bfb6" points="307,-537.747 311.5,-527.747 307,-532.747 307,-527.747 307,-527.747 307,-527.747 307,-532.747 302.5,-527.748 307,-537.747 307,-537.747"/>
</g>
<!-- User -->
<g id="node3" class="node"><title>User</title>
<path fill="none" stroke="black" d="M413,-738.5C413,-738.5 589,-738.5 589,-738.5 595,-738.5 601,-744.5 601,-750.5 601,-750.5 601,-997.5 601,-997.5 601,-1003.5 595,-1009.5 589,-1009.5 589,-1009.5 413,-1009.5 413,-1009.5 407,-1009.5 401,-1003.5 401,-997.5 401,-997.5 401,-750.5 401,-750.5 401,-744.5 407,-738.5 413,-738.5"/>
<text text-anchor="middle" x="501" y="-994.3" font-family="Times,serif" font-size="14.00">User</text>
<polyline fill="none" stroke="black" points="401,-986.5 601,-986.5 "/>
<text text-anchor="start" x="409" y="-971.3" font-family="Times,serif" font-size="14.00">id :integer</text>
<text text-anchor="start" x="409" y="-956.3" font-family="Times,serif" font-size="14.00">email :string</text>
<text text-anchor="start" x="409" y="-941.3" font-family="Times,serif" font-size="14.00">encrypted_password :string</text>
<text text-anchor="start" x="409" y="-926.3" font-family="Times,serif" font-size="14.00">reset_password_token :string</text>
<text text-anchor="start" x="409" y="-911.3" font-family="Times,serif" font-size="14.00">reset_password_sent_at :datetime</text>
<text text-anchor="start" x="409" y="-896.3" font-family="Times,serif" font-size="14.00">remember_created_at :datetime</text>
<text text-anchor="start" x="409" y="-881.3" font-family="Times,serif" font-size="14.00">sign_in_count :integer</text>
<text text-anchor="start" x="409" y="-866.3" font-family="Times,serif" font-size="14.00">current_sign_in_at :datetime</text>
<text text-anchor="start" x="409" y="-851.3" font-family="Times,serif" font-size="14.00">last_sign_in_at :datetime</text>
<text text-anchor="start" x="409" y="-836.3" font-family="Times,serif" font-size="14.00">current_sign_in_ip :string</text>
<text text-anchor="start" x="409" y="-821.3" font-family="Times,serif" font-size="14.00">last_sign_in_ip :string</text>
<text text-anchor="start" x="409" y="-806.3" font-family="Times,serif" font-size="14.00">confirmation_token :string</text>
<text text-anchor="start" x="409" y="-791.3" font-family="Times,serif" font-size="14.00">confirmed_at :datetime</text>
<text text-anchor="start" x="409" y="-776.3" font-family="Times,serif" font-size="14.00">confirmation_sent_at :datetime</text>
<text text-anchor="start" x="409" y="-761.3" font-family="Times,serif" font-size="14.00">created_at :datetime</text>
<text text-anchor="start" x="409" y="-746.3" font-family="Times,serif" font-size="14.00">updated_at :datetime</text>
</g>
<!-- Buildstandard -->
<g id="node4" class="node"><title>Buildstandard</title>
<path fill="none" stroke="black" d="M407.5,-376.5C407.5,-376.5 514.5,-376.5 514.5,-376.5 520.5,-376.5 526.5,-382.5 526.5,-388.5 526.5,-388.5 526.5,-515.5 526.5,-515.5 526.5,-521.5 520.5,-527.5 514.5,-527.5 514.5,-527.5 407.5,-527.5 407.5,-527.5 401.5,-527.5 395.5,-521.5 395.5,-515.5 395.5,-515.5 395.5,-388.5 395.5,-388.5 395.5,-382.5 401.5,-376.5 407.5,-376.5"/>
<text text-anchor="middle" x="461" y="-512.3" font-family="Times,serif" font-size="14.00">Buildstandard</text>
<polyline fill="none" stroke="black" points="395.5,-504.5 526.5,-504.5 "/>
<text text-anchor="start" x="403.5" y="-489.3" font-family="Times,serif" font-size="14.00">id :integer</text>
<text text-anchor="start" x="403.5" y="-474.3" font-family="Times,serif" font-size="14.00">description :text</text>
<text text-anchor="start" x="403.5" y="-459.3" font-family="Times,serif" font-size="14.00">spin_id :integer</text>
<text text-anchor="start" x="403.5" y="-444.3" font-family="Times,serif" font-size="14.00">bom :string</text>
<text text-anchor="start" x="403.5" y="-429.3" font-family="Times,serif" font-size="14.00">schematic :string</text>
<text text-anchor="start" x="403.5" y="-414.3" font-family="Times,serif" font-size="14.00">created_at :datetime</text>
<text text-anchor="start" x="403.5" y="-399.3" font-family="Times,serif" font-size="14.00">updated_at :datetime</text>
<text text-anchor="start" x="403.5" y="-384.3" font-family="Times,serif" font-size="14.00">bom_id :integer</text>
</g>
<!-- Mod -->
<g id="node6" class="node"><title>Mod</title>
<path fill="none" stroke="black" d="M243,-173.5C243,-173.5 371,-173.5 371,-173.5 377,-173.5 383,-179.5 383,-185.5 383,-185.5 383,-312.5 383,-312.5 383,-318.5 377,-324.5 371,-324.5 371,-324.5 243,-324.5 243,-324.5 237,-324.5 231,-318.5 231,-312.5 231,-312.5 231,-185.5 231,-185.5 231,-179.5 237,-173.5 243,-173.5"/>
<text text-anchor="middle" x="307" y="-309.3" font-family="Times,serif" font-size="14.00">Mod</text>
<polyline fill="none" stroke="black" points="231,-301.5 383,-301.5 "/>
<text text-anchor="start" x="239" y="-286.3" font-family="Times,serif" font-size="14.00">id :integer</text>
<text text-anchor="start" x="239" y="-271.3" font-family="Times,serif" font-size="14.00">item_id :integer</text>
<text text-anchor="start" x="239" y="-256.3" font-family="Times,serif" font-size="14.00">name :text</text>
<text text-anchor="start" x="239" y="-241.3" font-family="Times,serif" font-size="14.00">description :text</text>
<text text-anchor="start" x="239" y="-226.3" font-family="Times,serif" font-size="14.00">build_rev :integer</text>
<text text-anchor="start" x="239" y="-211.3" font-family="Times,serif" font-size="14.00">buildstandard_id :integer</text>
<text text-anchor="start" x="239" y="-196.3" font-family="Times,serif" font-size="14.00">created_at :datetime</text>
<text text-anchor="start" x="239" y="-181.3" font-family="Times,serif" font-size="14.00">updated_at :datetime</text>
</g>
<!-- Buildstandard&#45;&gt;Mod -->
<g id="edge2" class="edge"><title>Buildstandard&#45;&gt;Mod</title>
<path fill="none" stroke="#d5a6b0" d="M398.993,-370.069C389.59,-357.796 379.876,-345.117 370.442,-332.805"/>
<ellipse fill="none" stroke="#d5a6b0" cx="401.442" cy="-373.265" rx="4.00002" ry="4.00002"/>
<polygon fill="#d5a6b0" stroke="#d5a6b0" points="370.371,-332.712 367.862,-322.037 367.331,-328.743 364.29,-324.774 364.29,-324.774 364.29,-324.774 367.331,-328.743 360.718,-327.511 370.371,-332.712 370.371,-332.712"/>
</g>
<!-- Bom -->
<g id="node8" class="node"><title>Bom</title>
<path fill="none" stroke="black" d="M413.5,-203.5C413.5,-203.5 520.5,-203.5 520.5,-203.5 526.5,-203.5 532.5,-209.5 532.5,-215.5 532.5,-215.5 532.5,-282.5 532.5,-282.5 532.5,-288.5 526.5,-294.5 520.5,-294.5 520.5,-294.5 413.5,-294.5 413.5,-294.5 407.5,-294.5 401.5,-288.5 401.5,-282.5 401.5,-282.5 401.5,-215.5 401.5,-215.5 401.5,-209.5 407.5,-203.5 413.5,-203.5"/>
<text text-anchor="middle" x="467" y="-279.3" font-family="Times,serif" font-size="14.00">Bom</text>
<polyline fill="none" stroke="black" points="401.5,-271.5 532.5,-271.5 "/>
<text text-anchor="start" x="409.5" y="-256.3" font-family="Times,serif" font-size="14.00">id :integer</text>
<text text-anchor="start" x="409.5" y="-241.3" font-family="Times,serif" font-size="14.00">description :text</text>
<text text-anchor="start" x="409.5" y="-226.3" font-family="Times,serif" font-size="14.00">created_at :datetime</text>
<text text-anchor="start" x="409.5" y="-211.3" font-family="Times,serif" font-size="14.00">updated_at :datetime</text>
</g>
<!-- Buildstandard&#45;&gt;Bom -->
<g id="edge3" class="edge"><title>Buildstandard&#45;&gt;Bom</title>
<path fill="none" stroke="#af2d10" d="M463.468,-368.318C464.13,-346.158 464.827,-322.806 465.425,-302.755"/>
<ellipse fill="none" stroke="#af2d10" cx="463.345" cy="-372.442" rx="4" ry="4"/>
<ellipse fill="#af2d10" stroke="#af2d10" cx="465.547" cy="-298.666" rx="4" ry="4"/>
</g>
<!-- Component -->
<g id="node5" class="node"><title>Component</title>
<path fill="none" stroke="black" d="M562.5,-158.5C562.5,-158.5 693.5,-158.5 693.5,-158.5 699.5,-158.5 705.5,-164.5 705.5,-170.5 705.5,-170.5 705.5,-327.5 705.5,-327.5 705.5,-333.5 699.5,-339.5 693.5,-339.5 693.5,-339.5 562.5,-339.5 562.5,-339.5 556.5,-339.5 550.5,-333.5 550.5,-327.5 550.5,-327.5 550.5,-170.5 550.5,-170.5 550.5,-164.5 556.5,-158.5 562.5,-158.5"/>
<text text-anchor="middle" x="628" y="-324.3" font-family="Times,serif" font-size="14.00">Component</text>
<polyline fill="none" stroke="black" points="550.5,-316.5 705.5,-316.5 "/>
<text text-anchor="start" x="558.5" y="-301.3" font-family="Times,serif" font-size="14.00">id :integer</text>
<text text-anchor="start" x="558.5" y="-286.3" font-family="Times,serif" font-size="14.00">value :string</text>
<text text-anchor="start" x="558.5" y="-271.3" font-family="Times,serif" font-size="14.00">package :string</text>
<text text-anchor="start" x="558.5" y="-256.3" font-family="Times,serif" font-size="14.00">manufacturer :string</text>
<text text-anchor="start" x="558.5" y="-241.3" font-family="Times,serif" font-size="14.00">manufacturer_part :string</text>
<text text-anchor="start" x="558.5" y="-226.3" font-family="Times,serif" font-size="14.00">resmed_part :string</text>
<text text-anchor="start" x="558.5" y="-211.3" font-family="Times,serif" font-size="14.00">description :text</text>
<text text-anchor="start" x="558.5" y="-196.3" font-family="Times,serif" font-size="14.00">part_data :string</text>
<text text-anchor="start" x="558.5" y="-181.3" font-family="Times,serif" font-size="14.00">created_at :datetime</text>
<text text-anchor="start" x="558.5" y="-166.3" font-family="Times,serif" font-size="14.00">updated_at :datetime</text>
</g>
<!-- BomComponent -->
<g id="node9" class="node"><title>BomComponent</title>
<path fill="none" stroke="black" d="M489,-0.5C489,-0.5 605,-0.5 605,-0.5 611,-0.5 617,-6.5 617,-12.5 617,-12.5 617,-109.5 617,-109.5 617,-115.5 611,-121.5 605,-121.5 605,-121.5 489,-121.5 489,-121.5 483,-121.5 477,-115.5 477,-109.5 477,-109.5 477,-12.5 477,-12.5 477,-6.5 483,-0.5 489,-0.5"/>
<text text-anchor="middle" x="547" y="-106.3" font-family="Times,serif" font-size="14.00">BomComponent</text>
<polyline fill="none" stroke="black" points="477,-98.5 617,-98.5 "/>
<text text-anchor="start" x="485" y="-83.3" font-family="Times,serif" font-size="14.00">id :integer</text>
<text text-anchor="start" x="485" y="-68.3" font-family="Times,serif" font-size="14.00">ref :string</text>
<text text-anchor="start" x="485" y="-53.3" font-family="Times,serif" font-size="14.00">bom_id :integer</text>
<text text-anchor="start" x="485" y="-38.3" font-family="Times,serif" font-size="14.00">component_id :integer</text>
<text text-anchor="start" x="485" y="-23.3" font-family="Times,serif" font-size="14.00">created_at :datetime</text>
<text text-anchor="start" x="485" y="-8.3" font-family="Times,serif" font-size="14.00">updated_at :datetime</text>
</g>
<!-- Component&#45;&gt;BomComponent -->
<g id="edge4" class="edge"><title>Component&#45;&gt;BomComponent</title>
<path fill="none" stroke="#342848" d="M585.619,-150.681C582.718,-144.019 579.83,-137.386 577.014,-130.921"/>
<ellipse fill="none" stroke="#342848" cx="587.326" cy="-154.602" rx="4.00002" ry="4.00002"/>
<polygon fill="#342848" stroke="#342848" points="576.94,-130.751 577.073,-119.786 574.944,-126.167 572.947,-121.583 572.947,-121.583 572.947,-121.583 574.944,-126.167 568.822,-123.38 576.94,-130.751 576.94,-130.751"/>
</g>
<!-- Item&#45;&gt;Mod -->
<g id="edge5" class="edge"><title>Item&#45;&gt;Mod</title>
<path fill="none" stroke="#19dab2" d="M307,-368.062C307,-357.081 307,-345.811 307,-334.799"/>
<ellipse fill="none" stroke="#19dab2" cx="307" cy="-372.441" rx="4" ry="4"/>
<polygon fill="#19dab2" stroke="#19dab2" points="307,-334.774 311.5,-324.774 307,-329.774 307,-324.774 307,-324.774 307,-324.774 307,-329.774 302.5,-324.774 307,-334.774 307,-334.774"/>
</g>
<!-- Bom&#45;&gt;BomComponent -->
<g id="edge6" class="edge"><title>Bom&#45;&gt;BomComponent</title>
<path fill="none" stroke="#0b3a4d" d="M489.451,-195.801C498.089,-175.717 508.089,-152.468 517.305,-131.04"/>
<ellipse fill="none" stroke="#0b3a4d" cx="487.742" cy="-199.774" rx="4.00002" ry="4.00002"/>
<polygon fill="#0b3a4d" stroke="#0b3a4d" points="517.387,-130.849 525.472,-123.441 519.363,-126.256 521.338,-121.663 521.338,-121.663 521.338,-121.663 519.363,-126.256 517.205,-119.885 517.387,-130.849 517.387,-130.849"/>
</g>
<!-- Product -->
<g id="node10" class="node"><title>Product</title>
<path fill="none" stroke="black" d="M243,-813.5C243,-813.5 371,-813.5 371,-813.5 377,-813.5 383,-819.5 383,-825.5 383,-825.5 383,-922.5 383,-922.5 383,-928.5 377,-934.5 371,-934.5 371,-934.5 243,-934.5 243,-934.5 237,-934.5 231,-928.5 231,-922.5 231,-922.5 231,-825.5 231,-825.5 231,-819.5 237,-813.5 243,-813.5"/>
<text text-anchor="middle" x="307" y="-919.3" font-family="Times,serif" font-size="14.00">Product</text>
<polyline fill="none" stroke="black" points="231,-911.5 383,-911.5 "/>
<text text-anchor="start" x="239" y="-896.3" font-family="Times,serif" font-size="14.00">id :integer</text>
<text text-anchor="start" x="239" y="-881.3" font-family="Times,serif" font-size="14.00">name :string</text>
<text text-anchor="start" x="239" y="-866.3" font-family="Times,serif" font-size="14.00">description :text</text>
<text text-anchor="start" x="239" y="-851.3" font-family="Times,serif" font-size="14.00">product_number :integer</text>
<text text-anchor="start" x="239" y="-836.3" font-family="Times,serif" font-size="14.00">created_at :datetime</text>
<text text-anchor="start" x="239" y="-821.3" font-family="Times,serif" font-size="14.00">updated_at :datetime</text>
</g>
<!-- Product&#45;&gt;Spin -->
<g id="edge7" class="edge"><title>Product&#45;&gt;Spin</title>
<path fill="none" stroke="#d3d9e5" d="M307,-805.183C307,-775.968 307,-741.647 307,-711.437"/>
<ellipse fill="none" stroke="#d3d9e5" cx="307" cy="-809.307" rx="4" ry="4"/>
<polygon fill="#d3d9e5" stroke="#d3d9e5" points="307,-711.363 311.5,-701.363 307,-706.363 307,-701.363 307,-701.363 307,-701.363 307,-706.363 302.5,-701.363 307,-711.363 307,-711.363"/>
</g>
</g>
</svg>
