<?xml version="1.0" encoding="UTF-8" standalone="no"?>
<!DOCTYPE svg PUBLIC "-//W3C//DTD SVG 1.1//EN"
 "http://www.w3.org/Graphics/SVG/1.1/DTD/svg11.dtd">
<!-- Generated by graphviz version 2.36.0 (20140111.2315)
 -->
<!-- Title: models_diagram Pages: 1 -->
<svg width="532pt" height="374pt"
 viewBox="0.00 0.00 532.00 374.00" xmlns="http://www.w3.org/2000/svg" xmlns:xlink="http://www.w3.org/1999/xlink">
<g id="graph0" class="graph" transform="scale(1 1) rotate(0) translate(4 370)">
<title>models_diagram</title>
<polygon fill="white" stroke="none" points="-4,4 -4,-370 528,-370 528,4 -4,4"/>
<!-- _diagram_info -->
<g id="node1" class="node"><title>_diagram_info</title>
<text text-anchor="start" x="7" y="-351.6" font-family="Times,serif" font-size="13.00">Models diagram</text>
<text text-anchor="start" x="7" y="-337.6" font-family="Times,serif" font-size="13.00">Date: Feb 04 2015 &#45; 16:23</text>
<text text-anchor="start" x="7" y="-323.6" font-family="Times,serif" font-size="13.00">Migration version: 20150112125022</text>
<text text-anchor="start" x="7" y="-309.6" font-family="Times,serif" font-size="13.00">Generated by RailRoady 1.3.0</text>
<text text-anchor="start" x="7" y="-295.6" font-family="Times,serif" font-size="13.00">http://railroady.prestonlee.com</text>
</g>
<!-- Spin -->
<g id="node2" class="node"><title>Spin</title>
<ellipse fill="none" stroke="black" cx="269" cy="-234" rx="27" ry="18"/>
<text text-anchor="middle" x="269" y="-230.3" font-family="Times,serif" font-size="14.00">Spin</text>
</g>
<!-- Item -->
<g id="node7" class="node"><title>Item</title>
<ellipse fill="none" stroke="black" cx="269" cy="-162" rx="26.949" ry="18"/>
<text text-anchor="middle" x="269" y="-158.3" font-family="Times,serif" font-size="14.00">Item</text>
</g>
<!-- Spin&#45;&gt;Item -->
<g id="edge1" class="edge"><title>Spin&#45;&gt;Item</title>
<path fill="none" stroke="#2b5f04" d="M269,-207.64C269,-202.063 269,-196.132 269,-190.476"/>
<ellipse fill="none" stroke="#2b5f04" cx="269" cy="-211.697" rx="4" ry="4"/>
<polygon fill="#2b5f04" stroke="#2b5f04" points="269,-190.104 273.5,-180.104 269,-185.104 269,-180.104 269,-180.104 269,-180.104 269,-185.104 264.5,-180.104 269,-190.104 269,-190.104"/>
</g>
<!-- User -->
<g id="node3" class="node"><title>User</title>
<ellipse fill="none" stroke="black" cx="353" cy="-327" rx="26.949" ry="18"/>
<text text-anchor="middle" x="353" y="-323.3" font-family="Times,serif" font-size="14.00">User</text>
</g>
<!-- Buildstandard -->
<g id="node4" class="node"><title>Buildstandard</title>
<ellipse fill="none" stroke="black" cx="374" cy="-162" rx="59.1941" ry="18"/>
<text text-anchor="middle" x="374" y="-158.3" font-family="Times,serif" font-size="14.00">Buildstandard</text>
</g>
<!-- Mod -->
<g id="node6" class="node"><title>Mod</title>
<ellipse fill="none" stroke="black" cx="284" cy="-90" rx="27.4223" ry="18"/>
<text text-anchor="middle" x="284" y="-86.3" font-family="Times,serif" font-size="14.00">Mod</text>
</g>
<!-- Buildstandard&#45;&gt;Mod -->
<g id="edge2" class="edge"><title>Buildstandard&#45;&gt;Mod</title>
<path fill="none" stroke="#9664cd" d="M346.567,-139.663C334.66,-130.402 320.806,-119.627 309.165,-110.573"/>
<ellipse fill="none" stroke="#9664cd" cx="349.969" cy="-142.309" rx="4.00002" ry="4.00002"/>
<polygon fill="#9664cd" stroke="#9664cd" points="309.034,-110.471 303.903,-100.779 305.087,-107.401 301.14,-104.331 301.14,-104.331 301.14,-104.331 305.087,-107.401 298.377,-107.883 309.034,-110.471 309.034,-110.471"/>
</g>
<!-- Bom -->
<g id="node8" class="node"><title>Bom</title>
<ellipse fill="none" stroke="black" cx="374" cy="-90" rx="28.3955" ry="18"/>
<text text-anchor="middle" x="374" y="-86.3" font-family="Times,serif" font-size="14.00">Bom</text>
</g>
<!-- Buildstandard&#45;&gt;Bom -->
<g id="edge3" class="edge"><title>Buildstandard&#45;&gt;Bom</title>
<path fill="none" stroke="#ed3970" d="M374,-135.64C374,-129.348 374,-122.605 374,-116.316"/>
<ellipse fill="none" stroke="#ed3970" cx="374" cy="-139.697" rx="4" ry="4"/>
<ellipse fill="#ed3970" stroke="#ed3970" cx="374" cy="-112.104" rx="4" ry="4"/>
</g>
<!-- Component -->
<g id="node5" class="node"><title>Component</title>
<ellipse fill="none" stroke="black" cx="473" cy="-90" rx="51.4931" ry="18"/>
<text text-anchor="middle" x="473" y="-86.3" font-family="Times,serif" font-size="14.00">Component</text>
</g>
<!-- BomComponent -->
<g id="node9" class="node"><title>BomComponent</title>
<ellipse fill="none" stroke="black" cx="423" cy="-18" rx="69.3156" ry="18"/>
<text text-anchor="middle" x="423" y="-14.3" font-family="Times,serif" font-size="14.00">BomComponent</text>
</g>
<!-- Component&#45;&gt;BomComponent -->
<g id="edge4" class="edge"><title>Component&#45;&gt;BomComponent</title>
<path fill="none" stroke="#bd9414" d="M456.307,-65.6295C451.431,-58.8031 446.079,-51.3107 441.119,-44.3669"/>
<ellipse fill="none" stroke="#bd9414" cx="458.826" cy="-69.156" rx="4.00002" ry="4.00002"/>
<polygon fill="#bd9414" stroke="#bd9414" points="440.924,-44.0936 438.773,-33.3406 438.018,-40.0249 435.112,-35.9562 435.112,-35.9562 435.112,-35.9562 438.018,-40.0249 431.45,-38.5718 440.924,-44.0936 440.924,-44.0936"/>
</g>
<!-- Item&#45;&gt;Mod -->
<g id="edge5" class="edge"><title>Item&#45;&gt;Mod</title>
<path fill="none" stroke="#2e08cc" d="M274.36,-135.987C275.589,-130.249 276.903,-124.121 278.152,-118.293"/>
<ellipse fill="none" stroke="#2e08cc" cx="273.469" cy="-140.144" rx="4.00001" ry="4.00001"/>
<polygon fill="#2e08cc" stroke="#2e08cc" points="278.203,-118.053 284.698,-109.218 279.25,-113.164 280.298,-108.275 280.298,-108.275 280.298,-108.275 279.25,-113.164 275.898,-107.332 278.203,-118.053 278.203,-118.053"/>
</g>
<!-- Bom&#45;&gt;BomComponent -->
<g id="edge6" class="edge"><title>Bom&#45;&gt;BomComponent</title>
<path fill="none" stroke="#c9b655" d="M389.744,-66.5087C394.762,-59.3406 400.343,-51.3666 405.479,-44.0303"/>
<ellipse fill="none" stroke="#c9b655" cx="387.413" cy="-69.839" rx="4.00002" ry="4.00002"/>
<polygon fill="#c9b655" stroke="#c9b655" points="405.507,-43.9897 414.928,-38.3779 408.375,-39.8935 411.242,-35.7973 411.242,-35.7973 411.242,-35.7973 408.375,-39.8935 407.555,-33.2167 405.507,-43.9897 405.507,-43.9897"/>
</g>
<!-- Product -->
<g id="node10" class="node"><title>Product</title>
<ellipse fill="none" stroke="black" cx="269" cy="-327" rx="38.0212" ry="18"/>
<text text-anchor="middle" x="269" y="-323.3" font-family="Times,serif" font-size="14.00">Product</text>
</g>
<!-- Product&#45;&gt;Spin -->
<g id="edge7" class="edge"><title>Product&#45;&gt;Spin</title>
<path fill="none" stroke="#efb247" d="M269,-300.729C269,-288.725 269,-274.362 269,-262.129"/>
<ellipse fill="none" stroke="#efb247" cx="269" cy="-304.884" rx="4" ry="4"/>
<polygon fill="#efb247" stroke="#efb247" points="269,-262.04 273.5,-252.04 269,-257.04 269,-252.04 269,-252.04 269,-252.04 269,-257.04 264.5,-252.04 269,-262.04 269,-262.04"/>
</g>
</g>
</svg>
